<svg width="117" height="115" viewBox="0 0 117 115" fill="none" xmlns="http://www.w3.org/2000/svg">
<g filter="url(#filter0_d_183_46)">
<path d="M104.084 88.0918L100.355 74.2109L85.4863 18.6426C85.0445 17.0326 83.9848 15.6623 82.5379 14.8294C81.091 13.9966 79.3738 13.7687 77.7598 14.1953L63.8789 17.9238C63.5322 18.0116 63.1995 18.1477 62.8906 18.3281C62.3322 17.3969 61.5422 16.6262 60.5976 16.0909C59.6529 15.5556 58.5858 15.274 57.5 15.2734H43.125C41.8396 15.2662 40.5838 15.6586 39.5312 16.3965C38.4787 15.6586 37.2229 15.2662 35.9375 15.2734H21.5625C19.8945 15.2734 18.2949 15.936 17.1155 17.1155C15.936 18.2949 15.2734 19.8945 15.2734 21.5625V93.4375C15.2734 95.1055 15.936 96.7051 17.1155 97.8845C18.2949 99.064 19.8945 99.7266 21.5625 99.7266H35.9375C37.2229 99.7338 38.4787 99.3414 39.5312 98.6035C40.5838 99.3414 41.8396 99.7338 43.125 99.7266H57.5C59.168 99.7266 60.7676 99.064 61.947 97.8845C63.1265 96.7051 63.7891 95.1055 63.7891 93.4375V41.8672L78.0293 95.0547C78.394 96.3958 79.1897 97.5798 80.2937 98.424C81.3978 99.2683 82.7488 99.726 84.1387 99.7266C84.6849 99.718 85.228 99.6425 85.7559 99.5019L99.6367 95.7734C101.243 95.3416 102.613 94.2907 103.447 92.8511C104.28 91.4113 104.509 89.7001 104.084 88.0918ZM69.0449 40.7441L84.6777 36.5664L94.4707 72.998L78.8379 77.1758L69.0449 40.7441ZM64.7324 23.584C64.8477 23.3705 65.0407 23.2096 65.2715 23.1348L79.1523 19.4062H79.3769C79.5721 19.4107 79.7615 19.4727 79.9214 19.5846C80.0813 19.6966 80.2045 19.8533 80.2754 20.0352L83.2851 31.3555L67.6523 35.5332L64.6426 24.2578C64.5877 24.0298 64.6198 23.7896 64.7324 23.584ZM43.125 20.6641H57.5C57.7383 20.6641 57.9668 20.7587 58.1353 20.9272C58.3038 21.0957 58.3984 21.3242 58.3984 21.5625V76.3672H42.2266V21.5625C42.2266 21.3242 42.3212 21.0957 42.4897 20.9272C42.6582 20.7587 42.8867 20.6641 43.125 20.6641ZM21.5625 20.6641H35.9375C36.1758 20.6641 36.4043 20.7587 36.5728 20.9272C36.7413 21.0957 36.8359 21.3242 36.8359 21.5625V33.2422H20.6641V21.5625C20.6641 21.3242 20.7587 21.0957 20.9272 20.9272C21.0957 20.7587 21.3242 20.6641 21.5625 20.6641ZM35.9375 94.3359H21.5625C21.3242 94.3359 21.0957 94.2413 20.9272 94.0728C20.7587 93.9043 20.6641 93.6758 20.6641 93.4375V38.6328H36.8359V93.4375C36.8359 93.6758 36.7413 93.9043 36.5728 94.0728C36.4043 94.2413 36.1758 94.3359 35.9375 94.3359ZM57.5 94.3359H43.125C42.8867 94.3359 42.6582 94.2413 42.4897 94.0728C42.3212 93.9043 42.2266 93.6758 42.2266 93.4375V81.7578H58.3984V93.4375C58.3984 93.6758 58.3038 93.9043 58.1353 94.0728C57.9668 94.2413 57.7383 94.3359 57.5 94.3359ZM98.2441 90.5625L84.3633 94.291C84.2483 94.3251 84.1276 94.3358 84.0083 94.3225C83.8891 94.3092 83.7738 94.2721 83.6691 94.2135C83.5644 94.1549 83.4725 94.0759 83.3989 93.9812C83.3252 93.8865 83.2713 93.778 83.2402 93.6621L80.2305 82.3867L95.8633 78.209L98.873 89.4844C98.9067 89.5965 98.917 89.7143 98.9032 89.8306C98.8894 89.9468 98.8519 90.059 98.7929 90.1601C98.7339 90.2612 98.6548 90.3491 98.5604 90.4184C98.466 90.4876 98.3583 90.5366 98.2441 90.5625Z" fill="white"/>
</g>
<defs>
<filter id="filter0_d_183_46" x="0" y="0" width="127" height="127" filterUnits="userSpaceOnUse" color-interpolation-filters="sRGB">
<feFlood flood-opacity="0" result="BackgroundImageFix"/>
<feColorMatrix in="SourceAlpha" type="matrix" values="0 0 0 0 0 0 0 0 0 0 0 0 0 0 0 0 0 0 127 0" result="hardAlpha"/>
<feOffset dx="6" dy="6"/>
<feGaussianBlur stdDeviation="3"/>
<feColorMatrix type="matrix" values="0 0 0 0 0 0 0 0 0 0 0 0 0 0 0 0 0 0 0.15 0"/>
<feBlend mode="normal" in2="BackgroundImageFix" result="effect1_dropShadow_183_46"/>
<feBlend mode="normal" in="SourceGraphic" in2="effect1_dropShadow_183_46" result="shape"/>
</filter>
</defs>
</svg>
