<svg width="117" height="103" viewBox="0 0 117 103" fill="none" xmlns="http://www.w3.org/2000/svg">
<g filter="url(#filter0_d_185_72)">
<path d="M111.211 27.5236L60.118 0.380307C59.6156 0.130204 59.0616 0 58.5 0C57.9384 0 57.3844 0.130204 56.882 0.380307L5.78881 27.5236C5.24717 27.8198 4.79539 28.2556 4.4807 28.7853C4.16602 29.315 4 29.9193 4 30.5348C4 31.1503 4.16602 31.7545 4.4807 32.2842C4.79539 32.8139 5.24717 33.2497 5.78881 33.546L15.9223 38.8898V60.0106C15.9159 61.4669 16.3951 62.8841 17.2848 64.0397C20.6484 68.5353 33.592 83.1248 58.5 83.1248C66.1105 83.1881 73.6508 81.6714 80.6404 78.6716V91.6071C80.6404 92.507 80.9993 93.3699 81.6381 94.0062C82.2768 94.6425 83.1432 95 84.0466 95C84.95 95 85.8164 94.6425 86.4552 94.0062C87.094 93.3699 87.4528 92.507 87.4528 91.6071V75.1091C92.1578 72.1608 96.3079 68.4144 99.7152 64.0397C100.605 62.8841 101.084 61.4669 101.078 60.0106V38.8898L111.211 33.546C111.753 33.2497 112.205 32.8139 112.519 32.2842C112.834 31.7545 113 31.1503 113 30.5348C113 29.9193 112.834 29.315 112.519 28.7853C112.205 28.2556 111.753 27.8198 111.211 27.5236ZM58.5 76.339C36.7428 76.339 25.63 63.8277 22.7347 60.0106V42.5372L56.882 60.6892C57.3844 60.9393 57.9384 61.0695 58.5 61.0695C59.0616 61.0695 59.6156 60.9393 60.118 60.6892L80.6404 49.7471V71.1648C75.0627 74.0912 67.7394 76.339 58.5 76.339ZM94.2653 59.9682C92.3081 62.5348 90.0172 64.8309 87.4528 66.7965V46.1421L94.2653 42.5372V59.9682ZM96.0535 33.8853L84.0466 40.247L60.118 27.5236C59.7181 27.2515 59.2652 27.0664 58.7888 26.9802C58.3124 26.8941 57.8231 26.9088 57.3527 27.0235C56.8824 27.1382 56.4416 27.3502 56.059 27.6458C55.6764 27.9415 55.3605 28.314 55.1321 28.7393C54.9036 29.1645 54.7675 29.6329 54.7328 30.114C54.6981 30.5951 54.7655 31.078 54.9306 31.5315C55.0956 31.9849 55.3547 32.3986 55.691 32.7457C56.0272 33.0928 56.433 33.3655 56.882 33.546L76.8084 44.1064L58.5 53.8186L20.9465 33.8853L14.645 30.5348L58.5 7.25094L102.355 30.5348L96.0535 33.8853Z" fill="#F8F8F8"/>
</g>
<defs>
<filter id="filter0_d_185_72" x="0" y="0" width="117" height="103" filterUnits="userSpaceOnUse" color-interpolation-filters="sRGB">
<feFlood flood-opacity="0" result="BackgroundImageFix"/>
<feColorMatrix in="SourceAlpha" type="matrix" values="0 0 0 0 0 0 0 0 0 0 0 0 0 0 0 0 0 0 127 0" result="hardAlpha"/>
<feOffset dy="4"/>
<feGaussianBlur stdDeviation="2"/>
<feComposite in2="hardAlpha" operator="out"/>
<feColorMatrix type="matrix" values="0 0 0 0 0 0 0 0 0 0 0 0 0 0 0 0 0 0 0.25 0"/>
<feBlend mode="normal" in2="BackgroundImageFix" result="effect1_dropShadow_185_72"/>
<feBlend mode="normal" in="SourceGraphic" in2="effect1_dropShadow_185_72" result="shape"/>
</filter>
</defs>
</svg>
